<svg width="42" height="24" viewBox="0 0 42 24" fill="none" xmlns="http://www.w3.org/2000/svg">
<path d="M18.471 23.3234C19.7295 23.3234 20.7878 22.3652 20.7878 20.6204V12.3827C20.9738 13.0691 21.4886 13.6555 22.3467 14.1561L37.0059 22.7657C37.6209 23.1375 38.1644 23.3234 38.7937 23.3234C40.0522 23.3234 41.1105 22.3652 41.1105 20.6204V2.98646C41.1105 1.24166 40.0522 0.283447 38.7937 0.283447C38.1644 0.283447 37.6209 0.469369 37.0059 0.841213L22.3467 9.45082C21.4886 9.95138 20.9738 10.5234 20.7878 11.2099V2.98646C20.7878 1.24166 19.7438 0.283447 18.4853 0.283447C17.8417 0.283447 17.3125 0.469369 16.6833 0.841213L2.02405 9.45082C0.937121 10.0944 0.407959 10.8238 0.407959 11.7963C0.407959 12.7545 0.951423 13.5268 2.02405 14.1561L16.6833 22.7657C17.2982 23.1375 17.8417 23.3234 18.471 23.3234Z" fill="white"/>
</svg>
