<svg width="28" height="27" viewBox="0 0 28 27" fill="none" xmlns="http://www.w3.org/2000/svg">
<path d="M14.0665 26.6321C21.2426 26.6321 27.1658 20.709 27.1658 13.5456C27.1658 6.38214 21.23 0.459011 14.0539 0.459011C6.89045 0.459011 0.97998 6.38214 0.97998 13.5456C0.97998 20.709 6.90311 26.6321 14.0665 26.6321ZM14.0665 24.025C8.25732 24.025 3.61248 19.3548 3.61248 13.5456C3.61248 7.73636 8.25732 3.07886 14.0539 3.07886C19.8631 3.07886 24.5333 7.73636 24.5459 13.5456C24.5586 19.3548 19.8758 24.025 14.0665 24.025ZM7.68779 15.1403H14.0539C14.6361 15.1403 15.079 14.6973 15.079 14.1278V5.85057C15.079 5.28104 14.6361 4.83807 14.0539 4.83807C13.497 4.83807 13.054 5.28104 13.054 5.85057V13.1153H7.68779C7.11826 13.1153 6.67529 13.5582 6.67529 14.1278C6.67529 14.6973 7.11826 15.1403 7.68779 15.1403Z" fill="white" fill-opacity="0.8"/>
</svg>
