<svg width="32" height="32" viewBox="0 0 32 32" fill="none" xmlns="http://www.w3.org/2000/svg">
<path d="M15.959 11.6719C19.1656 11.6719 21.7867 9.03745 21.7867 5.83087C21.7867 2.6376 19.1656 0.00314331 15.959 0.00314331C12.7258 0.00314331 10.1046 2.6376 10.1046 5.83087C10.1046 9.03745 12.7258 11.6719 15.959 11.6719ZM15.959 9.21042C14.043 9.21042 12.5661 7.73353 12.5661 5.83087C12.5661 3.94152 14.043 2.41141 15.959 2.41141C17.8483 2.41141 19.3385 3.94152 19.3385 5.83087C19.3385 7.73353 17.8483 9.21042 15.959 9.21042ZM6.28599 21.6775C9.47927 21.6775 12.1137 19.043 12.1137 15.8365C12.1137 12.6432 9.47927 10.0087 6.28599 10.0087C3.05279 10.0087 0.431641 12.6432 0.431641 15.8365C0.431641 19.043 3.05279 21.6775 6.28599 21.6775ZM25.6586 21.6775C28.8518 21.6775 31.4863 19.043 31.4863 15.8365C31.4863 12.6432 28.8518 10.0087 25.6586 10.0087C22.4254 10.0087 19.8042 12.6432 19.8042 15.8365C19.8042 19.043 22.4254 21.6775 25.6586 21.6775ZM6.27268 19.216C4.37002 19.216 2.87982 17.7391 2.87982 15.8365C2.87982 13.9471 4.37002 12.417 6.27268 12.417C8.17535 12.417 9.66554 13.9471 9.66554 15.8365C9.66554 17.7391 8.17535 19.216 6.27268 19.216ZM25.6453 19.216C23.7426 19.216 22.2524 17.7391 22.2524 15.8365C22.2524 13.9471 23.7426 12.417 25.6453 12.417C27.5479 12.417 29.0381 13.9471 29.0381 15.8365C29.0381 17.7391 27.5479 19.216 25.6453 19.216ZM15.959 31.6831C19.1656 31.6831 21.7867 29.0353 21.7867 25.8421C21.7867 22.6488 19.1656 20.0143 15.959 20.0143C12.7258 20.0143 10.1046 22.6488 10.1046 25.8421C10.1046 29.0353 12.7258 31.6831 15.959 31.6831ZM15.959 29.2216C14.043 29.2216 12.5661 27.7447 12.5661 25.8421C12.5661 23.9527 14.043 22.4226 15.959 22.4226C17.8483 22.4226 19.3385 23.9527 19.3385 25.8421C19.3385 27.7447 17.8483 29.2216 15.959 29.2216Z" fill="white"/>
</svg>
