<svg width="21" height="13" viewBox="0 0 21 13" fill="none" xmlns="http://www.w3.org/2000/svg">
<path d="M1.70232 2.42509H19.2557C19.7459 2.42509 20.1419 2.01972 20.1419 1.52951C20.1419 1.0393 19.7459 0.643356 19.2557 0.643356H1.70232C1.20268 0.643356 0.816162 1.0393 0.816162 1.52951C0.816162 2.01972 1.2121 2.42509 1.70232 2.42509ZM3.65374 7.29893H17.342C17.8322 7.29893 18.2281 6.89356 18.2281 6.40335C18.2281 5.90371 17.8416 5.50777 17.342 5.50777H3.65374C3.1541 5.50777 2.76759 5.91314 2.76759 6.40335C2.76759 6.88413 3.16353 7.29893 3.65374 7.29893ZM5.56745 12.1633H15.4283C15.9279 12.1633 16.3144 11.758 16.3144 11.2678C16.3144 10.7775 15.9279 10.3816 15.4283 10.3816H5.56745C5.06781 10.3816 4.6813 10.7775 4.6813 11.2678C4.6813 11.758 5.06781 12.1633 5.56745 12.1633Z" fill="white"/>
</svg>
