<svg width="17" height="10" viewBox="0 0 17 10" fill="none" xmlns="http://www.w3.org/2000/svg">
<path d="M8.75912 9.8199C9.07552 9.81086 9.36481 9.69334 9.59986 9.44022L16.4704 2.40696C16.6693 2.20807 16.7778 1.95495 16.7778 1.65662C16.7778 1.05997 16.3077 0.580841 15.711 0.580841C15.4217 0.580841 15.1415 0.698363 14.9336 0.906287L8.76816 7.24345L2.58468 0.906287C2.37675 0.707404 2.10555 0.580841 1.80722 0.580841C1.21057 0.580841 0.740479 1.05997 0.740479 1.65662C0.740479 1.95495 0.848961 2.20807 1.04784 2.40696L7.92742 9.44022C8.17151 9.69334 8.44271 9.8199 8.75912 9.8199Z" fill="white"/>
</svg>
