<svg width="42" height="24" viewBox="0 0 42 24" fill="none" xmlns="http://www.w3.org/2000/svg">
<path d="M3.0449 23.3234C3.67417 23.3234 4.21764 23.1375 4.83261 22.7657L19.4918 14.1561C20.3356 13.6555 20.8648 13.0691 21.0507 12.3684V20.6204C21.0507 22.3652 22.109 23.3234 23.3676 23.3234C23.9969 23.3234 24.526 23.1375 25.1553 22.7657L39.8145 14.1561C40.8871 13.5268 41.4306 12.7545 41.4306 11.7963C41.4306 10.8238 40.9014 10.0944 39.8145 9.45082L25.1553 0.841213C24.526 0.469369 23.9825 0.283447 23.3533 0.283447C22.0947 0.283447 21.0507 1.24166 21.0507 2.98646V11.2099C20.8648 10.5234 20.3499 9.95138 19.4918 9.45082L4.83261 0.841213C4.21764 0.469369 3.67417 0.283447 3.0449 0.283447C1.78635 0.283447 0.728027 1.24166 0.728027 2.98646V20.6204C0.728027 22.3652 1.78635 23.3234 3.0449 23.3234Z" fill="white"/>
</svg>
