<svg width="12" height="17" viewBox="0 0 12 17" fill="none" xmlns="http://www.w3.org/2000/svg">
<path d="M6.35934 10.7714C7.82747 10.7714 8.91229 9.67212 8.91229 8.06659V3.19213C8.91229 1.5866 7.82747 0.487316 6.35934 0.487316C4.89122 0.487316 3.80639 1.5866 3.80639 3.19213V8.06659C3.80639 9.67212 4.89122 10.7714 6.35934 10.7714ZM0.833984 8.23293C0.833984 11.227 2.82282 13.2737 5.68675 13.5485V15.0167H3.03256C2.64925 15.0167 2.33104 15.3204 2.33104 15.7037C2.33104 16.0798 2.64925 16.3908 3.03256 16.3908H9.68613C10.0694 16.3908 10.3876 16.0798 10.3876 15.7037C10.3876 15.3204 10.0694 15.0167 9.68613 15.0167H7.03193V13.5485C9.89586 13.2737 11.8847 11.227 11.8847 8.23293V6.8082C11.8847 6.4249 11.5809 6.12838 11.1976 6.12838C10.8143 6.12838 10.4961 6.4249 10.4961 6.8082V8.1823C10.4961 10.6485 8.8255 12.2685 6.35934 12.2685C3.89318 12.2685 2.22256 10.6485 2.22256 8.1823V6.8082C2.22256 6.4249 1.91157 6.12838 1.52827 6.12838C1.14497 6.12838 0.833984 6.4249 0.833984 6.8082V8.23293Z" fill="white" fill-opacity="0.54"/>
</svg>
