<svg width="18" height="6" viewBox="0 0 18 6" fill="none" xmlns="http://www.w3.org/2000/svg">
<path d="M2.19918 0.92334C1.01118 0.92334 0.0391846 1.89534 0.0391846 3.08334C0.0391846 4.27134 1.01118 5.24334 2.19918 5.24334C3.38718 5.24334 4.35918 4.27134 4.35918 3.08334C4.35918 1.89534 3.38718 0.92334 2.19918 0.92334ZM15.1592 0.92334C13.9712 0.92334 12.9992 1.89534 12.9992 3.08334C12.9992 4.27134 13.9712 5.24334 15.1592 5.24334C16.3472 5.24334 17.3192 4.27134 17.3192 3.08334C17.3192 1.89534 16.3472 0.92334 15.1592 0.92334ZM8.67918 0.92334C7.49118 0.92334 6.51918 1.89534 6.51918 3.08334C6.51918 4.27134 7.49118 5.24334 8.67918 5.24334C9.86718 5.24334 10.8392 4.27134 10.8392 3.08334C10.8392 1.89534 9.86718 0.92334 8.67918 0.92334Z" fill="white"/>
</svg>
