<svg width="18" height="29" viewBox="0 0 18 29" fill="none" xmlns="http://www.w3.org/2000/svg">
<path d="M16.6807 0.846682C17.3076 0.710602 17.8992 1.18814 17.8992 1.82948V6.88649C17.8992 7.47995 17.4853 7.99277 16.9057 8.11814L11.1556 9.36239C10.6794 9.46571 10.3392 9.88718 10.3392 10.3748C10.3392 10.3748 10.3392 17.7036 10.3392 22.2472C10.3392 26.7907 8.09699 28.5434 5.25317 28.5434C2.13026 28.5434 0.88916 26.6842 0.88916 25.2258C0.88916 22.2755 2.95619 21.3248 5.25317 20.8504C7.55015 20.3761 7.81916 20.2721 7.81916 19.1772C7.81916 18.0822 7.81916 3.78059 7.81916 3.78059C7.81916 3.18713 8.23307 2.67431 8.81267 2.54894L16.6807 0.846682Z" fill="white" fill-opacity="0.8"/>
</svg>
