<svg width="26" height="27" viewBox="0 0 26 27" fill="none" xmlns="http://www.w3.org/2000/svg">
<path d="M16.8886 2.19947L24.128 9.43884C26.3808 7.224 26.5201 4.26244 24.2926 2.04759C22.0651 -0.16725 19.1161 -0.0533441 16.8886 2.19947ZM15.5218 3.579C14.2055 4.88259 13.6107 6.40134 13.7752 7.89478L2.03021 20.5004C1.52396 21.0573 1.47333 21.766 2.09349 22.4495L0.410208 24.5884C0.207708 24.8415 0.220364 25.2212 0.486146 25.487L0.853177 25.854C1.11896 26.1198 1.48599 26.1451 1.76443 25.9173L3.90333 24.234C4.5488 24.8542 5.28286 24.8035 5.81443 24.2973L12.1046 18.4501V25.2845C12.1046 26.0059 12.6741 26.5627 13.3955 26.5627C14.1169 26.5627 14.6865 26.0059 14.6865 25.2845V17.8173L14.5979 16.1467L18.4327 12.5902C19.9135 12.7421 21.4576 12.1346 22.7485 10.8184L15.5218 3.579ZM3.59958 21.5888L14.5599 10.0463C14.7751 10.3754 15.0282 10.6918 15.3319 10.9956C15.623 11.2993 15.9394 11.5651 16.2558 11.7802L4.7513 22.7406L3.59958 21.5888Z" fill="white" fill-opacity="0.8"/>
</svg>
