<svg width="27" height="33" viewBox="0 0 27 33" fill="none" xmlns="http://www.w3.org/2000/svg">
<path d="M5.06734 0.565826H21.5409C21.877 0.565826 22.1993 0.699334 22.437 0.93698C22.6746 1.17463 22.8081 1.49694 22.8081 1.83302C22.8081 2.16911 22.6746 2.49142 22.437 2.72907C22.1993 2.96671 21.877 3.10022 21.5409 3.10022H5.06734C4.73125 3.10022 4.40894 2.96671 4.17129 2.72907C3.93364 2.49142 3.80014 2.16911 3.80014 1.83302C3.80014 1.49694 3.93364 1.17463 4.17129 0.93698C4.40894 0.699334 4.73125 0.565826 5.06734 0.565826ZM3.80014 4.36742H22.8081C23.1442 4.36742 23.4665 4.50093 23.7042 4.73857C23.9418 4.97622 24.0753 5.29854 24.0753 5.63462C24.0753 5.9707 23.9418 6.29302 23.7042 6.53066C23.4665 6.76831 23.1442 6.90182 22.8081 6.90182H3.80014C3.46405 6.90182 3.14174 6.76831 2.90409 6.53066C2.66644 6.29302 2.53294 5.9707 2.53294 5.63462C2.53294 5.29854 2.66644 4.97622 2.90409 4.73857C3.14174 4.50093 3.46405 4.36742 3.80014 4.36742ZM2.53294 8.16902H24.0753C24.4114 8.16902 24.7337 8.30252 24.9714 8.54017C25.209 8.77782 25.3425 9.10013 25.3425 9.43621C25.3425 9.7723 25.209 10.0946 24.9714 10.3323C24.7337 10.5699 24.4114 10.7034 24.0753 10.7034H2.53294C2.19685 10.7034 1.87454 10.5699 1.63689 10.3323C1.39924 10.0946 1.26574 9.7723 1.26574 9.43621C1.26574 9.10013 1.39924 8.77782 1.63689 8.54017C1.87454 8.30252 2.19685 8.16902 2.53294 8.16902ZM25.3425 11.9706H1.26574C0.929653 11.9706 0.607336 12.1041 0.36969 12.3418C0.132044 12.5794 -0.00146484 12.9017 -0.00146484 13.2378V30.9786C-0.00146484 31.3147 0.132044 31.637 0.36969 31.8746C0.607336 32.1123 0.929653 32.2458 1.26574 32.2458H25.3425C25.6786 32.2458 26.0009 32.1123 26.2386 31.8746C26.4762 31.637 26.6097 31.3147 26.6097 30.9786V13.2378C26.6097 12.9017 26.4762 12.5794 26.2386 12.3418C26.0009 12.1041 25.6786 11.9706 25.3425 11.9706ZM19.0065 18.3408C19.0067 18.6339 18.9052 18.9179 18.7194 19.1446C18.5337 19.3712 18.2751 19.5265 17.9877 19.5839L13.6894 20.4431C13.402 20.5005 13.1434 20.6558 12.9576 20.8825C12.7719 21.1091 12.6704 21.3932 12.6705 21.6862V23.1815H12.6515L12.6313 27.177C12.3841 28.5772 11.0498 29.7114 9.64953 29.7114H7.11513C5.71488 29.7114 4.78095 28.5772 5.02805 27.177C5.27516 25.7767 6.60952 24.6426 8.00977 24.6426H10.1361V16.677C10.1361 16.3719 10.2462 16.077 10.4462 15.8465C10.6462 15.6161 10.9226 15.4655 11.2247 15.4225L17.5607 14.5177C17.7404 14.4921 17.9235 14.5054 18.0976 14.5567C18.2717 14.608 18.4327 14.6961 18.5698 14.8151C18.7069 14.934 18.8168 15.081 18.8922 15.2462C18.9675 15.4113 19.0065 15.5907 19.0065 15.7722V18.3408Z" fill="white"/>
</svg>
