<svg width="32" height="27" viewBox="0 0 32 27" fill="none" xmlns="http://www.w3.org/2000/svg">
<path d="M3.55723 21.8031H28.373C30.603 21.8031 31.7989 20.6072 31.7989 18.3648V4.01349C31.7989 1.7711 30.603 0.575165 28.373 0.575165H3.55723C1.31484 0.575165 0.118896 1.7711 0.118896 4.01349V18.3648C0.118896 20.6072 1.31484 21.8031 3.55723 21.8031ZM3.69426 19.4237C2.89697 19.4237 2.49832 19.0375 2.49832 18.2277V4.15053C2.49832 3.34078 2.89697 2.95459 3.69426 2.95459H28.2235C29.0208 2.95459 29.4195 3.34078 29.4195 4.15053V18.2277C29.4195 19.0375 29.0208 19.4237 28.2235 19.4237H3.69426ZM19.6651 9.03395C20.288 8.88446 20.4748 8.73496 20.4748 7.99996V5.55825C20.4748 5.04748 20.2755 4.8357 19.6028 4.99765L15.9651 5.90706C15.3298 6.05656 15.1927 6.20605 15.1927 6.95351V12.41C15.1927 12.9457 15.1554 13.0329 14.5449 13.1948L13.4113 13.4938C12.2278 13.8053 11.3059 14.5029 11.3059 15.7113C11.3059 16.7951 12.1157 17.5675 13.3864 17.5675C15.1803 17.5675 16.4011 16.2843 16.4011 14.4655V10.342C16.4011 9.90599 16.5008 9.79387 16.7624 9.74404L19.6651 9.03395ZM9.58677 26.1508H22.331C22.9539 26.1508 23.4647 25.6401 23.4647 25.0296C23.4647 24.4068 22.9539 23.896 22.331 23.896H9.58677C8.96388 23.896 8.46557 24.4068 8.46557 25.0296C8.46557 25.6401 8.96388 26.1508 9.58677 26.1508Z" fill="white"/>
</svg>
