<svg width="26" height="33" viewBox="0 0 26 33" fill="none" xmlns="http://www.w3.org/2000/svg">
<path d="M3.45716 32.6434H7.93119C9.73985 32.6434 10.6727 31.7106 10.6727 29.9019V3.70498C10.6727 1.85825 9.73985 0.982478 7.93119 0.96344H3.45716C1.6485 0.96344 0.715618 1.89632 0.715618 3.70498V29.9019C0.696579 31.7106 1.62946 32.6434 3.45716 32.6434ZM17.9264 32.6434H22.3814C24.19 32.6434 25.1229 31.7106 25.1229 29.9019V3.70498C25.1229 1.85825 24.19 0.96344 22.3814 0.96344H17.9264C16.0987 0.96344 15.1848 1.89632 15.1848 3.70498V29.9019C15.1848 31.7106 16.0987 32.6434 17.9264 32.6434Z" fill="white"/>
</svg>
