<svg width="28" height="28" viewBox="0 0 28 28" fill="none" xmlns="http://www.w3.org/2000/svg">
<path d="M14.0665 27.1521C21.2426 27.1521 27.1658 21.229 27.1658 14.0656C27.1658 6.90213 21.23 0.979004 14.0539 0.979004C6.89045 0.979004 0.97998 6.90213 0.97998 14.0656C0.97998 21.229 6.90311 27.1521 14.0665 27.1521ZM14.0665 18.4446C10.4975 18.4446 7.72576 19.7229 6.3842 21.191C4.66295 19.3306 3.61248 16.8246 3.61248 14.0656C3.61248 8.25635 8.25732 3.59885 14.0539 3.59885C19.8631 3.59885 24.5333 8.25635 24.5459 14.0656C24.5459 16.8246 23.4954 19.3306 21.7615 21.2037C20.42 19.7229 17.6483 18.4446 14.0665 18.4446ZM14.0665 16.369C16.5219 16.3943 18.4329 14.2934 18.4329 11.5849C18.4329 9.02838 16.5092 6.88947 14.0665 6.88947C11.6365 6.88947 9.70014 9.02838 9.71279 11.5849C9.72545 14.2934 11.6239 16.3563 14.0665 16.369Z" fill="white" fill-opacity="0.8"/>
</svg>
