<svg width="32" height="33" viewBox="0 0 32 33" fill="none" xmlns="http://www.w3.org/2000/svg">
    <path
        d="M15.9511 32.1632C24.637 32.1632 31.8064 24.9938 31.8064 16.3232C31.8064 7.65252 24.6217 0.483162 15.9358 0.483162C7.26513 0.483162 0.111084 7.65252 0.111084 16.3232C0.111084 24.9938 7.28045 32.1632 15.9511 32.1632ZM15.9511 29.0074C8.9196 29.0074 3.29747 23.3547 3.29747 16.3232C3.29747 9.29167 8.9196 3.65423 15.9358 3.65423C22.9673 3.65423 28.62 9.29167 28.6353 16.3232C28.6507 23.3547 22.9826 29.0074 15.9511 29.0074ZM21.8949 17.181C22.5383 16.8134 22.523 15.8789 21.8949 15.5112L13.0711 10.3027C12.397 9.91976 11.5085 10.2415 11.5085 10.9921V21.6849C11.5085 22.4355 12.3511 22.8032 13.0711 22.3742L21.8949 17.181Z"
        fill="white" />
</svg>