<svg width="22" height="22" viewBox="0 0 22 22" fill="none" xmlns="http://www.w3.org/2000/svg">
<path d="M1.91596 12.1084H9.63627V19.8287C9.63627 20.6134 10.2817 21.2715 11.0791 21.2715C11.8764 21.2715 12.5219 20.6134 12.5219 19.8287V12.1084H20.2422C21.0269 12.1084 21.685 11.4629 21.685 10.6656C21.685 9.86823 21.0269 9.22276 20.2422 9.22276H12.5219V1.50244C12.5219 0.717756 11.8764 0.0596313 11.0791 0.0596313C10.2817 0.0596313 9.63627 0.717756 9.63627 1.50244V9.22276H1.91596C1.13127 9.22276 0.473145 9.86823 0.473145 10.6656C0.473145 11.4629 1.13127 12.1084 1.91596 12.1084Z" fill="white" fill-opacity="0.8"/>
</svg>
