<svg width="26" height="33" viewBox="0 0 26 33" fill="none" xmlns="http://www.w3.org/2000/svg">
<path d="M0.0915527 27.8439C0.0915527 31.0046 1.71579 32.6434 4.84721 32.6434H20.4311C23.5626 32.6434 25.1868 31.0046 25.1868 27.8439V5.763C25.1868 2.61695 23.5626 0.96344 20.4311 0.96344H4.84721C1.71579 0.96344 0.0915527 2.61695 0.0915527 5.763V27.8439ZM2.95958 27.6683V5.93859C2.95958 4.57774 3.66195 3.83147 5.08134 3.83147H20.1824C21.6018 3.83147 22.3188 4.57774 22.3188 5.93859V27.6683C22.3188 29.0291 21.6018 29.7754 20.1824 29.7754H5.08134C3.66195 29.7754 2.95958 29.0291 2.95958 27.6683ZM6.41292 9.31877C7.17383 9.31877 7.77377 8.70419 7.77377 7.95792C7.77377 7.19701 7.17383 6.59707 6.41292 6.59707C5.66665 6.59707 5.05207 7.21164 5.05207 7.95792C5.05207 8.70419 5.66665 9.31877 6.41292 9.31877ZM10.4369 8.90905H19.2751C19.8019 8.90905 20.2263 8.4847 20.2263 7.95792C20.2263 7.43114 19.8019 7.00678 19.2751 7.00678H10.4369C9.91016 7.00678 9.48581 7.43114 9.48581 7.95792C9.48581 8.4847 9.91016 8.90905 10.4369 8.90905ZM6.41292 13.6793C7.17383 13.6793 7.77377 13.0648 7.77377 12.3185C7.77377 11.5576 7.17383 10.9723 6.41292 10.9723C5.65202 10.9723 5.05207 11.5722 5.05207 12.3185C5.05207 13.0648 5.65202 13.6793 6.41292 13.6793ZM10.4369 13.2696H19.2751C19.8166 13.2696 20.2263 12.8453 20.2263 12.3185C20.2263 11.7917 19.8166 11.382 19.2751 11.382H10.4369C9.89553 11.382 9.48581 11.7917 9.48581 12.3185C9.48581 12.8453 9.89553 13.2696 10.4369 13.2696ZM6.41292 18.2594C7.17383 18.2594 7.77377 17.6448 7.77377 16.8986C7.77377 16.1376 7.17383 15.5231 6.41292 15.5231C5.66665 15.5231 5.05207 16.1523 5.05207 16.8986C5.05207 17.6302 5.66665 18.2594 6.41292 18.2594ZM10.4369 17.8497H19.2751C19.8019 17.8497 20.2263 17.4107 20.2263 16.8986C20.2263 16.3718 19.8166 15.9474 19.2751 15.9474H10.4369C9.89553 15.9474 9.48581 16.3718 9.48581 16.8986C9.48581 17.4107 9.91016 17.8497 10.4369 17.8497Z" fill="white"/>
</svg>
