<svg width="31" height="30" viewBox="0 0 31 30" fill="none" xmlns="http://www.w3.org/2000/svg">
<path d="M8.9889 29.2034C9.76691 29.2034 10.3402 28.8212 11.282 27.9886L15.9637 23.8665H24.1806C28.289 23.8665 30.5957 21.4915 30.5957 17.4377V6.8322C30.5957 2.77836 28.289 0.403381 24.1806 0.403381H6.77771C2.68293 0.403381 0.362549 2.77836 0.362549 6.8322V17.4377C0.362549 21.5052 2.75117 23.8665 6.68217 23.8665H7.24179V27.2106C7.24179 28.4254 7.88331 29.2034 8.9889 29.2034ZM9.67136 26.1459V22.2559C9.67136 21.4506 9.31648 21.1367 8.55212 21.1367H6.87326C4.30719 21.1367 3.07876 19.84 3.07876 17.3558V6.91409C3.07876 4.42992 4.30719 3.13324 6.87326 3.13324H24.0987C26.6511 3.13324 27.8795 4.42992 27.8795 6.91409V17.3558C27.8795 19.84 26.6511 21.1367 24.0987 21.1367H15.8135C14.9809 21.1367 14.5715 21.2731 13.9982 21.8737L9.67136 26.1459ZM9.02985 10.7632C9.02985 12.2919 9.99895 13.4794 11.5004 13.4794C12.0873 13.4794 12.6469 13.3429 13.0018 12.9198H13.1656C12.7288 13.9571 11.7461 14.6805 10.7497 14.9262C10.2856 15.0491 10.1218 15.2675 10.1218 15.595C10.1218 15.9499 10.4221 16.2093 10.8179 16.2093C12.2374 16.2093 14.8581 14.5167 14.8581 11.3092C14.8581 9.43921 13.6706 7.99239 11.8689 7.99239C10.2446 7.99239 9.02985 9.13893 9.02985 10.7632ZM16.2094 10.7632C16.2094 12.2919 17.1785 13.4794 18.6799 13.4794C19.2805 13.4794 19.8401 13.3429 20.195 12.9198H20.3451C19.9083 13.9571 18.9256 14.6805 17.9292 14.9262C17.4788 15.0491 17.315 15.2675 17.315 15.595C17.315 15.9499 17.6016 16.2093 17.9974 16.2093C19.417 16.2093 22.0376 14.5167 22.0376 11.3092C22.0376 9.43921 20.8501 7.99239 19.0484 7.99239C17.4242 7.99239 16.2094 9.13893 16.2094 10.7632Z" fill="white"/>
</svg>
