<svg width="32" height="22" viewBox="0 0 32 22" fill="none" xmlns="http://www.w3.org/2000/svg">
<path d="M0.118896 10.8836C0.118896 14.8837 1.61447 18.5514 4.22578 21.2932C4.6887 21.7918 5.3534 21.7562 5.74509 21.317C6.13679 20.9015 6.0537 20.2843 5.61453 19.8095C3.37117 17.4594 2.1486 14.3139 2.1486 10.8836C2.1486 7.45329 3.37117 4.30785 5.61453 1.95767C6.0537 1.48288 6.13679 0.865665 5.74509 0.43836C5.3534 0.0110541 4.6887 -0.0245547 4.22578 0.473968C1.61447 3.20398 0.118896 6.88355 0.118896 10.8836ZM31.7989 10.8836C31.7989 6.88355 30.3033 3.20398 27.692 0.473968C27.2172 -0.0245547 26.5525 0.0110541 26.1608 0.43836C25.781 0.865665 25.8522 1.48288 26.3033 1.95767C28.5466 4.30785 29.7692 7.45329 29.7692 10.8836C29.7692 14.3139 28.5466 17.4594 26.3033 19.8095C25.8522 20.2843 25.781 20.9015 26.1608 21.317C26.5525 21.7562 27.2172 21.7918 27.692 21.2932C30.3033 18.5514 31.7989 14.8837 31.7989 10.8836ZM4.43944 10.8836C4.43944 13.7323 5.46022 16.3792 7.28814 18.3615C7.76293 18.8837 8.45136 18.8837 8.85493 18.4208C9.2585 17.9698 9.15167 17.4 8.70063 16.9015C7.25253 15.2754 6.46914 13.1744 6.46914 10.8836C6.46914 8.5809 7.25253 6.49185 8.70063 4.86572C9.15167 4.3672 9.2585 3.78559 8.85493 3.34641C8.45136 2.87163 7.76293 2.8835 7.28814 3.39389C5.46022 5.38798 4.43944 8.0349 4.43944 10.8836ZM27.4665 10.8836C27.4665 8.0349 26.4457 5.38798 24.6296 3.39389C24.1549 2.8835 23.4546 2.87163 23.051 3.34641C22.6593 3.78559 22.7542 4.3672 23.2053 4.86572C24.6534 6.49185 25.4368 8.5809 25.4368 10.8836C25.4368 13.1744 24.6534 15.2754 23.2053 16.9015C22.7542 17.4 22.6593 17.9698 23.051 18.4208C23.4546 18.8837 24.1549 18.8837 24.6296 18.3615C26.4457 16.3792 27.4665 13.7323 27.4665 10.8836ZM8.77184 10.8836C8.77184 12.4979 9.31785 14.0172 10.2674 15.216C10.7066 15.7739 11.4544 15.7857 11.8698 15.311C12.2615 14.8718 12.1191 14.3377 11.7274 13.7917C11.122 12.9964 10.7897 11.9875 10.7897 10.8836C10.7897 9.77973 11.122 8.77082 11.7274 7.97555C12.1191 7.41768 12.2615 6.88355 11.8698 6.44438C11.4544 5.98146 10.7066 5.99333 10.2674 6.53933C9.31785 7.75003 8.77184 9.26934 8.77184 10.8836ZM23.1459 10.8836C23.1459 9.26934 22.5999 7.75003 21.6385 6.53933C21.2112 5.99333 20.4634 5.98146 20.048 6.44438C19.6444 6.88355 19.7868 7.41768 20.1904 7.97555C20.7958 8.77082 21.1162 9.77973 21.1162 10.8836C21.1162 11.9875 20.7958 12.9964 20.1904 13.7917C19.7868 14.3377 19.6444 14.8718 20.048 15.311C20.4634 15.7857 21.2112 15.7739 21.6385 15.216C22.5999 14.0172 23.1459 12.4979 23.1459 10.8836ZM15.953 13.7798C17.5197 13.7798 18.8491 12.4623 18.8491 10.8717C18.8491 9.28121 17.5197 7.97555 15.953 7.97555C14.398 7.97555 13.0568 9.28121 13.0568 10.8717C13.0568 12.4623 14.398 13.7798 15.953 13.7798Z" fill="white"/>
</svg>
