<svg width="30" height="30" viewBox="0 0 30 30" fill="none" xmlns="http://www.w3.org/2000/svg">
<path d="M12.4679 24.0713C14.8467 24.0713 17.0759 23.3532 18.9311 22.1264L25.484 28.6943C25.9179 29.1132 26.4715 29.3227 27.0699 29.3227C28.3117 29.3227 29.2243 28.3502 29.2243 27.1234C29.2243 26.5549 29.0298 26.0013 28.6109 25.5824L22.1028 19.0444C23.4493 17.1294 24.2423 14.8105 24.2423 12.297C24.2423 5.81888 18.9461 0.522675 12.4679 0.522675C6.00477 0.522675 0.693604 5.81888 0.693604 12.297C0.693604 18.7751 5.98981 24.0713 12.4679 24.0713ZM12.4679 20.9295C7.72529 20.9295 3.83542 17.0397 3.83542 12.297C3.83542 7.55436 7.72529 3.66449 12.4679 3.66449C17.2106 3.66449 21.1005 7.55436 21.1005 12.297C21.1005 17.0397 17.2106 20.9295 12.4679 20.9295Z" fill="white"/>
</svg>
