<svg width="16" height="20" viewBox="0 0 16 20" fill="none" xmlns="http://www.w3.org/2000/svg">
<path d="M0.883179 3.21862V16.806C0.883179 18.614 1.82336 19.5633 3.61331 19.5633H12.545C14.335 19.5633 15.2751 18.614 15.2751 16.806V3.21862C15.2751 1.40154 14.344 0.461365 12.545 0.461365H3.61331C1.82336 0.461365 0.883179 1.40154 0.883179 3.21862ZM8.07916 7.56694C6.86778 7.56694 5.90048 6.60869 5.90048 5.3973C5.90048 4.17688 6.87682 3.21862 8.07916 3.22766C9.29055 3.2367 10.2488 4.18592 10.2578 5.3973C10.2759 6.60869 9.2815 7.56694 8.07916 7.56694ZM8.07916 6.38268C8.63061 6.38268 9.07358 5.93971 9.07358 5.3973C9.07358 4.84585 8.62157 4.40288 8.07916 4.40288C7.52771 4.40288 7.08474 4.81873 7.08474 5.3973C7.08474 5.93971 7.52771 6.38268 8.07916 6.38268ZM8.07916 16.797C5.98184 16.797 4.28229 15.1155 4.28229 13.0091C4.28229 10.8847 5.98184 9.20322 8.07916 9.21226C10.1765 9.2213 11.876 10.8847 11.876 13.0091C11.876 15.1155 10.1765 16.797 8.07916 16.797ZM8.07916 14.5098C8.92894 14.5098 9.57983 13.8318 9.57983 13.0091C9.57983 12.1413 8.92894 11.4904 8.07916 11.4904C7.22938 11.4904 6.57849 12.1413 6.57849 13.0091C6.57849 13.8318 7.25651 14.5098 8.07916 14.5098Z" fill="white"/>
</svg>
