<svg width="42" height="33" viewBox="0 0 42 33" fill="none" xmlns="http://www.w3.org/2000/svg">
<path d="M19.7436 32.6434C21.0695 32.6434 22.0418 31.6534 22.0418 30.3452V3.35005C22.0418 2.02415 21.0695 0.96344 19.7083 0.96344C18.8067 0.96344 18.1702 1.35237 17.1979 2.27165L9.80828 9.18398C9.7022 9.29005 9.56078 9.34308 9.40167 9.34308H4.39863C1.78221 9.34308 0.36792 10.7927 0.36792 13.5329V20.1093C0.36792 22.8495 1.78221 24.2992 4.39863 24.2992H9.40167C9.56078 24.2992 9.68453 24.3522 9.80828 24.4583L17.1979 31.4236C18.0818 32.2722 18.8243 32.6434 19.7436 32.6434ZM35.4599 29.4083C36.2731 29.9033 37.2631 29.7265 37.8288 28.8956C40.127 25.6427 41.4706 21.2761 41.4706 16.7858C41.4706 12.2954 40.1447 7.91112 37.8288 4.67594C37.2631 3.84505 36.2731 3.65058 35.4599 4.16326C34.6113 4.69362 34.4876 5.75433 35.124 6.6913C36.9979 9.44915 38.0763 13.0379 38.0763 16.7858C38.0763 20.5159 36.9802 24.1047 35.124 26.8802C34.5052 27.8172 34.6113 28.8602 35.4599 29.4083ZM28.3531 24.6704C29.1133 25.1654 30.1033 24.9886 30.6513 24.2108C32.0833 22.3015 32.9318 19.5967 32.9318 16.7858C32.9318 13.9749 32.0833 11.2877 30.6513 9.36076C30.1033 8.5829 29.1133 8.40612 28.3531 8.9188C27.4868 9.48451 27.3101 10.5275 28.0172 11.5529C28.9895 12.9495 29.5376 14.8234 29.5376 16.7858C29.5376 18.7481 28.9718 20.6043 28.0172 22.0186C27.3277 23.044 27.4868 24.087 28.3531 24.6704Z" fill="white"/>
</svg>
