<svg width="25" height="24" viewBox="0 0 25 24" fill="none" xmlns="http://www.w3.org/2000/svg">
<path d="M2.65177 6.82403H5.27599C6.59389 6.82403 7.36844 6.03792 7.36844 4.67378V2.1536C7.36844 0.801029 6.59389 0.00335693 5.27599 0.00335693H2.65177C1.34544 0.00335693 0.559326 0.801029 0.559326 2.1536V4.67378C0.559326 6.03792 1.34544 6.82403 2.65177 6.82403ZM10.9984 6.82403H13.6226C14.9405 6.82403 15.7151 6.03792 15.7151 4.67378V2.1536C15.7151 0.801029 14.9405 0.00335693 13.6226 0.00335693H10.9984C9.68053 0.00335693 8.90598 0.801029 8.90598 2.1536V4.67378C8.90598 6.03792 9.68053 6.82403 10.9984 6.82403ZM19.3566 6.82403H21.9809C23.2872 6.82403 24.0733 6.03792 24.0733 4.67378V2.1536C24.0733 0.801029 23.2872 0.00335693 21.9809 0.00335693H19.3566C18.0387 0.00335693 17.2526 0.801029 17.2526 2.1536V4.67378C17.2526 6.03792 18.0387 6.82403 19.3566 6.82403ZM11.2643 5.04372C10.8828 5.04372 10.6863 4.83563 10.6863 4.41945V2.39637C10.6863 2.00332 10.8828 1.79523 11.2643 1.79523H13.3452C13.7267 1.79523 13.9348 2.00332 13.9348 2.39637V4.41945C13.9348 4.83563 13.7267 5.04372 13.3452 5.04372H11.2643ZM19.6225 5.04372C19.241 5.04372 19.0329 4.83563 19.0329 4.41945V2.39637C19.0329 2.00332 19.241 1.79523 19.6225 1.79523H21.6918C22.0849 1.79523 22.2814 2.00332 22.2814 2.39637V4.41945C22.2814 4.83563 22.0849 5.04372 21.6918 5.04372H19.6225ZM2.65177 14.9279H5.27599C6.59389 14.9279 7.36844 14.1534 7.36844 12.8008V10.2575C7.36844 8.90491 6.59389 8.13036 5.27599 8.13036H2.65177C1.34544 8.13036 0.559326 8.90491 0.559326 10.2575V12.8008C0.559326 14.1534 1.34544 14.9279 2.65177 14.9279ZM10.9984 14.9279H13.6226C14.9405 14.9279 15.7151 14.1534 15.7151 12.8008V10.2575C15.7151 8.90491 14.9405 8.13036 13.6226 8.13036H10.9984C9.68053 8.13036 8.90598 8.90491 8.90598 10.2575V12.8008C8.90598 14.1534 9.68053 14.9279 10.9984 14.9279ZM19.3566 14.9279H21.9809C23.2872 14.9279 24.0733 14.1534 24.0733 12.8008V10.2575C24.0733 8.90491 23.2872 8.13036 21.9809 8.13036H19.3566C18.0387 8.13036 17.2526 8.90491 17.2526 10.2575V12.8008C17.2526 14.1534 18.0387 14.9279 19.3566 14.9279ZM2.92922 13.1476C2.53616 13.1476 2.3512 12.9395 2.3512 12.5349V10.5118C2.3512 10.1072 2.53616 9.89911 2.92922 9.89911H4.99854C5.38004 9.89911 5.59969 10.1072 5.59969 10.5118V12.5349C5.59969 12.9395 5.38004 13.1476 4.99854 13.1476H2.92922ZM11.2643 13.1476C10.8828 13.1476 10.6863 12.9395 10.6863 12.5349V10.5118C10.6863 10.1072 10.8828 9.89911 11.2643 9.89911H13.3452C13.7267 9.89911 13.9348 10.1072 13.9348 10.5118V12.5349C13.9348 12.9395 13.7267 13.1476 13.3452 13.1476H11.2643ZM19.6225 13.1476C19.241 13.1476 19.0329 12.9395 19.0329 12.5349V10.5118C19.0329 10.1072 19.241 9.89911 19.6225 9.89911H21.6918C22.0849 9.89911 22.2814 10.1072 22.2814 10.5118V12.5349C22.2814 12.9395 22.0849 13.1476 21.6918 13.1476H19.6225ZM2.65177 23.0434H5.27599C6.59389 23.0434 7.36844 22.2572 7.36844 20.9047V18.3729C7.36844 17.0204 6.59389 16.2342 5.27599 16.2342H2.65177C1.34544 16.2342 0.559326 17.0204 0.559326 18.3729V20.9047C0.559326 22.2572 1.34544 23.0434 2.65177 23.0434ZM10.9984 23.0434H13.6226C14.9405 23.0434 15.7151 22.2572 15.7151 20.9047V18.3729C15.7151 17.0204 14.9405 16.2342 13.6226 16.2342H10.9984C9.68053 16.2342 8.90598 17.0204 8.90598 18.3729V20.9047C8.90598 22.2572 9.68053 23.0434 10.9984 23.0434ZM19.3566 23.0434H21.9809C23.2872 23.0434 24.0733 22.2572 24.0733 20.9047V18.3729C24.0733 17.0204 23.2872 16.2342 21.9809 16.2342H19.3566C18.0387 16.2342 17.2526 17.0204 17.2526 18.3729V20.9047C17.2526 22.2572 18.0387 23.0434 19.3566 23.0434ZM2.92922 21.263C2.53616 21.263 2.3512 21.055 2.3512 20.6388V18.6273C2.3512 18.2226 2.53616 18.0146 2.92922 18.0146H4.99854C5.38004 18.0146 5.59969 18.2226 5.59969 18.6273V20.6388C5.59969 21.055 5.38004 21.263 4.99854 21.263H2.92922ZM11.2643 21.263C10.8828 21.263 10.6863 21.055 10.6863 20.6388V18.6273C10.6863 18.2226 10.8828 18.0146 11.2643 18.0146H13.3452C13.7267 18.0146 13.9348 18.2226 13.9348 18.6273V20.6388C13.9348 21.055 13.7267 21.263 13.3452 21.263H11.2643ZM19.6225 21.263C19.241 21.263 19.0329 21.055 19.0329 20.6388V18.6273C19.0329 18.2226 19.241 18.0146 19.6225 18.0146H21.6918C22.0849 18.0146 22.2814 18.2226 22.2814 18.6273V20.6388C22.2814 21.055 22.0849 21.263 21.6918 21.263H19.6225Z" fill="white" fill-opacity="0.8"/>
</svg>
