<svg width="20" height="27" viewBox="0 0 20 27" fill="none" xmlns="http://www.w3.org/2000/svg">
<path d="M3.79178 26.7634C2.62291 26.7634 1.74439 26.473 1.15623 25.8923C0.575514 25.319 0.285156 24.4554 0.285156 23.3014V10.6374C0.285156 9.48337 0.575514 8.61974 1.15623 8.04647C1.74439 7.46576 2.62291 7.1754 3.79178 7.1754H16.3665C17.5279 7.1754 18.4027 7.46576 18.9909 8.04647C19.579 8.61974 19.8731 9.48337 19.8731 10.6374V23.3014C19.8731 24.448 19.5939 25.3116 19.0356 25.8923C18.4772 26.473 17.6992 26.7634 16.7015 26.7634H3.79178ZM3.81412 24.9654H16.668C17.0552 24.9654 17.3865 24.8165 17.6619 24.5187C17.9374 24.2209 18.0751 23.7816 18.0751 23.2009V10.7267C18.0751 10.1534 17.9225 9.71789 17.6173 9.42008C17.312 9.12228 16.8839 8.97338 16.333 8.97338H3.81412C3.25574 8.97338 2.82765 9.12228 2.52984 9.42008C2.23204 9.71789 2.08314 10.1534 2.08314 10.7267V23.2009C2.08314 23.7816 2.23204 24.2209 2.52984 24.5187C2.82765 24.8165 3.25574 24.9654 3.81412 24.9654ZM2.71969 5.37741C2.80159 4.87115 2.97655 4.48401 3.24457 4.21598C3.51259 3.94052 3.92579 3.80278 4.48417 3.80278H15.6629C16.2213 3.80278 16.6345 3.94052 16.9025 4.21598C17.1706 4.48401 17.3455 4.87115 17.4274 5.37741H2.71969ZM4.66286 2.28399C4.69264 1.8075 4.84154 1.45014 5.10956 1.2119C5.38503 0.966212 5.77962 0.843369 6.29333 0.843369H13.8538C14.3675 0.843369 14.7584 0.966212 15.0264 1.2119C15.3019 1.45014 15.4582 1.8075 15.4954 2.28399H4.66286Z" fill="white" fill-opacity="0.8"/>
</svg>
